<svg width="32" height="32" viewBox="0 0 32 32" fill="none" xmlns="http://www.w3.org/2000/svg">
<g clip-path="url(#clip0_264_3152)">
<path d="M16 32C24.8366 32 32 24.8366 32 16C32 7.16344 24.8366 0 16 0C7.16344 0 0 7.16344 0 16C0 24.8366 7.16344 32 16 32Z" fill="#1769FF"/>
<path d="M12.6541 10.668C13.1151 10.668 13.5409 10.7031 13.9317 10.8084C14.3225 10.8787 14.643 11.0236 14.9284 11.1992C15.2138 11.3748 15.4245 11.6251 15.5694 11.9456C15.7099 12.2662 15.7845 12.6569 15.7845 13.0828C15.7845 13.579 15.6792 14.0048 15.4289 14.3254C15.2138 14.6458 14.8625 14.9312 14.4323 15.142C15.0381 15.3176 15.4991 15.6382 15.7801 16.064C16.0611 16.4899 16.2412 17.0212 16.2412 17.6271C16.2412 18.1232 16.1358 18.5491 15.9558 18.9048C15.7801 19.2604 15.4948 19.5809 15.1743 19.7916C14.8537 20.0068 14.463 20.1824 14.0371 20.2878C13.6112 20.3932 13.1853 20.4634 12.7594 20.4634L8 20.4722V10.668H12.6541ZM12.3687 14.6458C12.7594 14.6458 13.0799 14.5405 13.3258 14.3605C13.5717 14.1804 13.6815 13.8643 13.6815 13.4736C13.6815 13.2584 13.6463 13.0477 13.5761 12.9072C13.5058 12.7667 13.4005 12.6569 13.2555 12.5516C13.1151 12.4813 12.9702 12.411 12.7945 12.3759C12.6189 12.3408 12.4389 12.3408 12.2281 12.3408H10.1689V14.6502C10.1689 14.6458 12.3687 14.6458 12.3687 14.6458ZM12.4741 18.8389C12.6892 18.8389 12.8999 18.8038 13.0799 18.7686C13.2555 18.7335 13.4356 18.6633 13.5761 18.5535C13.7166 18.4438 13.8263 18.3384 13.9317 18.1628C14.002 17.9871 14.0722 17.772 14.0722 17.5217C14.0722 17.0256 13.9317 16.67 13.6463 16.4197C13.3609 16.2045 12.9702 16.0992 12.5091 16.0992H10.1689V18.8345H12.4741V18.8389Z" fill="white"/>
<path d="M19.332 18.8033C19.6174 19.0887 20.0433 19.2293 20.6097 19.2293C21.0005 19.2293 21.3561 19.1239 21.6415 18.9439C21.9269 18.7287 22.1025 18.518 22.1727 18.3028H23.9114C23.6261 19.1546 23.2001 19.7605 22.6337 20.1513C22.0674 20.5069 21.3912 20.7177 20.5745 20.7177C20.0082 20.7177 19.5077 20.6123 19.0466 20.4323C18.5856 20.2567 18.23 20.0064 17.9095 19.6508C17.5889 19.3302 17.3431 18.9395 17.1982 18.4785C17.0225 18.0175 16.9479 17.5213 16.9479 16.9505C16.9479 16.4193 17.0181 15.9187 17.1982 15.4577C17.3782 14.9967 17.6241 14.606 17.9446 14.2503C18.2651 13.9298 18.6559 13.6444 19.0817 13.4687C19.5428 13.2931 20.0038 13.1834 20.5745 13.1834C21.1805 13.1834 21.7117 13.2887 22.1727 13.539C22.6337 13.7893 22.9894 14.0703 23.2748 14.4961C23.5602 14.8869 23.7709 15.3479 23.9158 15.8441C23.9861 16.3402 24.0212 16.8407 23.9861 17.4071H18.8359C18.8359 17.9868 19.0466 18.518 19.332 18.8033ZM21.5712 15.0713C21.321 14.8211 20.9302 14.6806 20.4692 14.6806C20.1487 14.6806 19.9028 14.7508 19.6877 14.8562C19.4725 14.9616 19.332 15.1065 19.1915 15.2469C19.051 15.3875 18.9764 15.5675 18.9413 15.7431C18.9061 15.9187 18.871 16.0636 18.871 16.2041H22.0674C21.9971 15.6773 21.8171 15.3216 21.5712 15.0713ZM18.4451 11.3438H22.423V12.3009H18.4451V11.3438Z" fill="white"/>
</g>
<defs>
<clipPath id="clip0_264_3152">
<rect width="32" height="32" fill="white"/>
</clipPath>
</defs>
</svg>
