<svg width="32" height="32" viewBox="0 0 32 32" fill="none" xmlns="http://www.w3.org/2000/svg">
<g clip-path="url(#clip0_264_3168)">
<path d="M30.7403 9.77114C30.3418 8.82297 29.842 7.90842 29.2648 7.05501C28.6951 6.20873 28.0358 5.41035 27.3139 4.68789C26.5894 3.96389 25.793 3.30715 24.9452 2.73498C24.0903 2.15568 23.1763 1.66096 22.2291 1.25897C21.2611 0.852389 20.2487 0.536501 19.2215 0.327097C18.1684 0.11107 17.0842 0 16.0005 0C14.9153 0 13.8316 0.11107 12.7774 0.327097C11.7493 0.536501 10.7379 0.852389 9.77087 1.25897C8.8227 1.66096 7.90815 2.15619 7.05169 2.73498C6.20592 3.30715 5.40907 3.96389 4.68456 4.68789C3.9621 5.41086 3.30637 6.20873 2.7337 7.05501C2.15644 7.90842 1.65866 8.82297 1.2587 9.77114C0.848557 10.7382 0.534707 11.7526 0.323265 12.7802C0.108767 13.8308 0.000244141 14.9145 0.000244141 15.9987C0.000244141 17.086 0.108767 18.1697 0.323265 19.2223C0.534707 20.2505 0.848557 21.2618 1.2587 22.2273C1.65815 23.1745 2.15644 24.0936 2.7337 24.947C3.30637 25.7938 3.9621 26.5881 4.68456 27.3142C5.40958 28.0361 6.20592 28.6913 7.05169 29.265C7.90815 29.8428 8.8227 30.339 9.77087 30.7395C10.7379 31.1502 11.7498 31.4625 12.7774 31.6719C13.8316 31.8899 14.9153 31.999 16.0005 31.999C17.0842 31.999 18.1684 31.8899 19.2215 31.6719C20.2492 31.4625 21.2611 31.1502 22.2291 30.7395C23.1763 30.3395 24.0903 29.8428 24.9452 29.265C25.793 28.6913 26.5899 28.0361 27.3139 27.3142C28.0358 26.5876 28.6951 25.7938 29.2648 24.947C29.842 24.0936 30.3413 23.1745 30.7403 22.2273C31.1489 21.2613 31.4653 20.25 31.6757 19.2223C31.8892 18.1697 31.9997 17.086 31.9997 15.9987C31.9997 14.9145 31.8892 13.8308 31.6757 12.7802C31.4648 11.7526 31.1484 10.7387 30.7403 9.77114ZM16 2.33655C19.4579 2.33655 22.6163 3.62711 25.0242 5.74713C24.9901 5.79808 23.0448 8.7603 17.8851 10.6928C15.5506 6.40183 12.9833 2.99279 12.78 2.72123C13.8107 2.47208 14.8898 2.33655 16 2.33655ZM12.726 2.73294C12.726 2.73498 12.7234 2.73702 12.7234 2.73702C12.7234 2.73702 12.7071 2.7411 12.6821 2.74517C12.6979 2.7411 12.7107 2.73906 12.726 2.73294ZM10.1688 3.64342C10.3512 3.88645 12.8783 7.31231 15.2444 11.5157C8.68208 13.2592 2.98743 13.1899 2.62823 13.1838C3.51425 8.95136 6.35622 5.44245 10.1688 3.64342ZM5.83603 25.1304C3.65945 22.7088 2.33425 19.5092 2.33425 15.9992C2.33425 15.8535 2.34189 15.7109 2.34546 15.5677C2.58849 15.5733 9.33933 15.7261 16.374 13.6204C16.7658 14.3867 17.1397 15.1667 17.4831 15.9447C17.3028 15.9931 17.1234 16.0471 16.9441 16.1078C9.57115 18.4897 5.82991 25.1228 5.82991 25.1228L5.83603 25.1304ZM16 29.6645C12.7733 29.6645 9.80858 28.5436 7.46897 26.6712C7.54896 26.7333 7.60093 26.771 7.60093 26.771C7.60093 26.771 10.2197 21.0591 18.3243 18.2354C18.3539 18.2247 18.386 18.2166 18.4165 18.2074C20.3384 23.202 21.1306 27.3865 21.3344 28.5803C19.6949 29.2778 17.8912 29.6645 16 29.6645ZM23.6348 27.332C23.4957 26.5076 22.7682 22.4969 20.9747 17.5736C25.3865 16.8679 29.2077 18.0775 29.4905 18.1702C28.8831 21.9772 26.7015 25.2604 23.6348 27.332ZM20.1442 15.4159C20.0454 15.1825 19.9491 14.9471 19.8477 14.7122C19.5639 14.0428 19.2572 13.3799 18.9398 12.7293C24.3359 10.5267 26.5262 7.35918 26.5517 7.3225C28.4679 9.64886 29.628 12.6218 29.6601 15.8637C29.4629 15.8204 24.8387 14.8243 20.1442 15.4159Z" fill="#F26B95"/>
<path d="M30.7403 9.76944C30.3419 8.82126 29.8421 7.90672 29.2648 7.05331C29.0844 6.78531 28.8918 6.52343 28.6942 6.26562C28.1036 6.70736 27.4561 7.1496 26.7555 7.59032C28.5449 9.87592 29.6291 12.7408 29.6597 15.8615C29.4625 15.8187 24.8383 14.8226 20.1438 15.4137C20.0449 15.1803 19.9486 14.9449 19.8472 14.71C19.5635 14.0406 19.2567 13.3777 18.9393 12.7271C22.6831 11.1991 24.8811 9.20848 25.8863 8.11918C22.5348 10.097 18.1593 11.997 13.2319 13.4908C10.1617 14.4222 7.18216 15.1008 4.43087 15.5349C7.00536 15.432 11.6234 15.0402 16.374 13.6182C16.7658 14.3845 17.1398 15.1645 17.4832 15.9425C17.3028 15.9909 17.1235 16.0449 16.9441 16.1055C9.57119 18.488 5.82995 25.1211 5.82995 25.1211L5.83607 25.1287C3.65949 22.7071 2.33429 19.5075 2.33429 15.9975C2.33429 15.9384 2.33735 15.8809 2.33939 15.8223C1.53438 15.9165 0.751283 15.9889 0.000793457 16.0368C0.00283145 17.1103 0.110845 18.1812 0.322796 19.2211C0.534237 20.2493 0.848088 21.2606 1.25823 22.2261C1.65768 23.1733 2.15597 24.0924 2.73323 24.9458C3.3059 25.7926 3.96163 26.5869 4.68409 27.313C5.40911 28.0349 6.20545 28.6901 7.05122 29.2638C7.90768 29.8416 8.82223 30.3378 9.77041 30.7383C10.7374 31.149 11.7493 31.4613 12.7769 31.6707C13.8311 31.8888 14.9148 31.9978 16 31.9978C17.0837 31.9978 18.1679 31.8888 19.2211 31.6707C20.2487 31.4613 21.2606 31.149 22.2286 30.7383C23.1758 30.3384 24.0898 29.8416 24.9448 29.2638C25.7926 28.6901 26.5894 28.0349 27.3134 27.313C28.0354 26.5864 28.6947 25.7926 29.2643 24.9458C29.8415 24.0924 30.3409 23.1733 30.7398 22.2261C31.1484 21.2601 31.4648 20.2488 31.6752 19.2211C31.8887 18.1685 31.9993 17.0848 31.9993 15.9975C31.9993 14.9133 31.8887 13.8296 31.6752 12.779C31.4648 11.7509 31.1484 10.737 30.7403 9.76944ZM16 29.6628C12.8325 29.6628 9.92071 28.578 7.60249 26.7668C7.62746 26.7128 10.259 21.0441 18.3244 18.2337C18.3539 18.223 18.386 18.2149 18.4166 18.2057C20.3384 23.2003 21.1307 27.3848 21.3345 28.5786C19.6949 29.2761 17.8913 29.6628 16 29.6628ZM23.6348 27.3303C23.4958 26.5059 22.7682 22.4952 20.9748 17.5719C25.3865 16.8662 29.2077 18.0758 29.4905 18.1685C28.8832 21.9755 26.7015 25.2587 23.6348 27.3303Z" fill="#E64C87"/>
<path d="M29.3651 18.8378C28.6208 22.359 26.5201 25.3808 23.6348 27.3301C23.5823 27.0209 23.4473 26.2622 23.2043 25.1755C22.4701 25.6462 21.7018 26.0661 20.9049 26.4334C21.1276 27.4295 21.2646 28.1769 21.3334 28.5789C19.6944 29.2754 17.8907 29.6626 15.9995 29.6626C13.4362 29.6626 11.0467 28.9432 8.99696 27.7122C6.79593 27.2257 4.73603 26.3509 2.88605 25.1617C3.42255 25.927 4.02325 26.6494 4.68304 27.3133C5.40806 28.0353 6.2044 28.6905 7.05017 29.2642C7.90663 29.8419 8.82118 30.3382 9.76936 30.7387C10.7364 31.1493 11.7482 31.4616 12.7759 31.671C13.83 31.8891 14.9138 31.9981 15.999 31.9981C17.0827 31.9981 18.1669 31.8891 19.22 31.671C20.2477 31.4616 21.2595 31.1493 22.2276 30.7387C23.1747 30.3387 24.0888 29.8419 24.9437 29.2642C25.7915 28.6905 26.5884 28.0353 27.3124 27.3133C28.0343 26.5868 28.6936 25.793 29.2632 24.9462C29.8405 24.0928 30.3398 23.1736 30.7387 22.2265C31.1474 21.2605 31.4638 20.2491 31.6742 19.2215C31.8877 18.1689 31.9982 17.0852 31.9982 15.9979C31.9982 15.0013 31.9009 14.0057 31.7195 13.0352C31.238 15.1165 30.4351 17.0704 29.3651 18.8378Z" fill="#BA3A7B"/>
<path d="M13.7562 26.7948C14.0727 26.7948 14.3294 26.5382 14.3294 26.2216C14.3294 25.9051 14.0727 25.6484 13.7562 25.6484C13.4396 25.6484 13.183 25.9051 13.183 26.2216C13.183 26.5382 13.4396 26.7948 13.7562 26.7948Z" fill="#BA3A7B"/>
<path d="M16.4947 27.3064C16.6354 27.3064 16.7495 27.1923 16.7495 27.0516C16.7495 26.9109 16.6354 26.7969 16.4947 26.7969C16.354 26.7969 16.24 26.9109 16.24 27.0516C16.24 27.1923 16.354 27.3064 16.4947 27.3064Z" fill="#BA3A7B"/>
<path d="M18.0232 23.3588C18.3046 23.3588 18.5327 23.1307 18.5327 22.8493C18.5327 22.568 18.3046 22.3398 18.0232 22.3398C17.7418 22.3398 17.5137 22.568 17.5137 22.8493C17.5137 23.1307 17.7418 23.3588 18.0232 23.3588Z" fill="#BA3A7B"/>
<path d="M25.792 23.74C25.9327 23.74 26.0468 23.6259 26.0468 23.4852C26.0468 23.3445 25.9327 23.2305 25.792 23.2305C25.6513 23.2305 25.5373 23.3445 25.5373 23.4852C25.5373 23.6259 25.6513 23.74 25.792 23.74Z" fill="#BA3A7B"/>
<path d="M27.0031 20.6829C27.1087 20.6829 27.1942 20.5974 27.1942 20.4918C27.1942 20.3863 27.1087 20.3008 27.0031 20.3008C26.8976 20.3008 26.8121 20.3863 26.8121 20.4918C26.8121 20.5974 26.8976 20.6829 27.0031 20.6829Z" fill="#BA3A7B"/>
<path d="M1.91036 30.5579C2.01588 30.5579 2.10142 30.4724 2.10142 30.3668C2.10142 30.2613 2.01588 30.1758 1.91036 30.1758C1.80484 30.1758 1.7193 30.2613 1.7193 30.3668C1.7193 30.4724 1.80484 30.5579 1.91036 30.5579Z" fill="#BA3A7B"/>
<path d="M2.35616 29.0949C2.77825 29.0949 3.12041 28.7527 3.12041 28.3307C3.12041 27.9086 2.77825 27.5664 2.35616 27.5664C1.93408 27.5664 1.59192 27.9086 1.59192 28.3307C1.59192 28.7527 1.93408 29.0949 2.35616 29.0949Z" fill="#E64C87"/>
<path d="M5.98634 19.5401C6.23255 19.5401 6.43215 19.3405 6.43215 19.0942C6.43215 18.848 6.23255 18.6484 5.98634 18.6484C5.74012 18.6484 5.54053 18.848 5.54053 19.0942C5.54053 19.3405 5.74012 19.5401 5.98634 19.5401Z" fill="#E64C87"/>
<path d="M19.2969 27.5674C19.5432 27.5674 19.7428 27.3678 19.7428 27.1216C19.7428 26.8754 19.5432 26.6758 19.2969 26.6758C19.0507 26.6758 18.8511 26.8754 18.8511 27.1216C18.8511 27.3678 19.0507 27.5674 19.2969 27.5674Z" fill="#E64C87"/>
<path d="M6.05003 22.4713C6.26107 22.4713 6.43215 22.3002 6.43215 22.0892C6.43215 21.8781 6.26107 21.707 6.05003 21.707C5.83899 21.707 5.66791 21.8781 5.66791 22.0892C5.66791 22.3002 5.83899 22.4713 6.05003 22.4713Z" fill="#E64C87"/>
<path d="M13.0546 24.5103C13.2656 24.5103 13.4367 24.3393 13.4367 24.1282C13.4367 23.9172 13.2656 23.7461 13.0546 23.7461C12.8436 23.7461 12.6725 23.9172 12.6725 24.1282C12.6725 24.3393 12.8436 24.5103 13.0546 24.5103Z" fill="#E64C87"/>
<path d="M10.5071 26.8033C10.7182 26.8033 10.8892 26.6322 10.8892 26.4212C10.8892 26.2101 10.7182 26.0391 10.5071 26.0391C10.2961 26.0391 10.125 26.2101 10.125 26.4212C10.125 26.6322 10.2961 26.8033 10.5071 26.8033Z" fill="#E64C87"/>
<path d="M8.21538 18.3962C8.35607 18.3962 8.47013 18.2822 8.47013 18.1415C8.47013 18.0008 8.35607 17.8867 8.21538 17.8867C8.07469 17.8867 7.96063 18.0008 7.96063 18.1415C7.96063 18.2822 8.07469 18.3962 8.21538 18.3962Z" fill="#E64C87"/>
<path d="M16.6211 25.1462C16.7618 25.1462 16.8758 25.0322 16.8758 24.8915C16.8758 24.7508 16.7618 24.6367 16.6211 24.6367C16.4804 24.6367 16.3663 24.7508 16.3663 24.8915C16.3663 25.0322 16.4804 25.1462 16.6211 25.1462Z" fill="#E64C87"/>
<path d="M4.64891 29.7322C4.78961 29.7322 4.90366 29.6181 4.90366 29.4774C4.90366 29.3367 4.78961 29.2227 4.64891 29.2227C4.50822 29.2227 4.39417 29.3367 4.39417 29.4774C4.39417 29.6181 4.50822 29.7322 4.64891 29.7322Z" fill="#E64C87"/>
</g>
<defs>
<clipPath id="clip0_264_3168">
<rect width="32" height="32" fill="white"/>
</clipPath>
</defs>
</svg>
