<svg width="32" height="32" viewBox="0 0 32 32" fill="none" xmlns="http://www.w3.org/2000/svg">
<path d="M27.2 0H4.8C2.14903 0 0 2.14903 0 4.8V27.2C0 29.851 2.14903 32 4.8 32H27.2C29.851 32 32 29.851 32 27.2V4.8C32 2.14903 29.851 0 27.2 0Z" fill="white"/>
<path d="M9.875 24.4375V15.5625L4.75 11.625V22.5625C4.75 23.8125 5.375 24.4375 6.625 24.4375" fill="#4285F4"/>
<path d="M9.625 15.5L16 20.3125L22.375 15.5V9.375L16 14.1875L9.625 9.375" fill="#EA4335"/>
<path d="M22.125 24.4375V15.5625L27.25 11.625V22.5625C27.25 23.8125 26.625 24.4375 25.375 24.4375" fill="#34A853"/>
<path d="M4.75 11.7509L9.875 15.6884V9.56342L8 8.12592C6.3125 6.81342 4.75 8.12592 4.75 9.75092" fill="#C5221F"/>
<path d="M27.25 11.7509L22.125 15.6884V9.56342L24 8.12592C25.6875 6.81342 27.25 8.12592 27.25 9.75092" fill="#FBBC04"/>
</svg>
