<svg width="17" height="16" viewBox="0 0 17 16" fill="none" xmlns="http://www.w3.org/2000/svg">
<g clip-path="url(#clip0_264_3117)">
<path d="M8.50004 14.6654C12.1819 14.6654 15.1667 11.6806 15.1667 7.9987C15.1667 4.3168 12.1819 1.33203 8.50004 1.33203C4.81814 1.33203 1.83337 4.3168 1.83337 7.9987C1.83337 11.6806 4.81814 14.6654 8.50004 14.6654Z" stroke="black" stroke-width="2" stroke-linecap="round" stroke-linejoin="round"/>
<path d="M10.5 6.2347C10.1417 5.8285 9.66823 5.54104 9.14254 5.41056C8.61685 5.28008 8.0639 5.31278 7.55725 5.5043C7.0506 5.69582 6.61429 6.03708 6.30636 6.48267C5.99843 6.92826 5.8335 7.45706 5.8335 7.9987C5.8335 8.54034 5.99843 9.06913 6.30636 9.51473C6.61429 9.96032 7.0506 10.3016 7.55725 10.4931C8.0639 10.6846 8.61685 10.7173 9.14254 10.5868C9.66823 10.4564 10.1417 10.1689 10.5 9.7627" stroke="black" stroke-width="2" stroke-linecap="round" stroke-linejoin="round"/>
</g>
<defs>
<clipPath id="clip0_264_3117">
<rect width="16" height="16" fill="white" transform="translate(0.5)"/>
</clipPath>
</defs>
</svg>
